<?xml version="1.0" encoding="utf-8"?>
<!-- Generator: Adobe Illustrator 19.0.0, SVG Export Plug-In . SVG Version: 6.00 Build 0)  -->
<svg version="1.1" id="Capa_1" xmlns="http://www.w3.org/2000/svg" xmlns:xlink="http://www.w3.org/1999/xlink" x="0px" y="0px"
	 viewBox="-809 323.9 299.1 299.1" style="enable-background:new -809 323.9 299.1 299.1;" xml:space="preserve">
<style type="text/css">
	.st0{fill:#112DA5;}
</style>
<g>
	<path class="st0" d="M-1321.3,789.9c-2.7-3.6-66-87.6-147.1-87.6c-81,0-144.4,84-147.1,87.6c-3.3,4.4-3.3,10.5,0,14.9
		c2.7,3.6,66,87.6,147.1,87.6c81,0,144.4-84,147.1-87.6C-1318.1,800.4-1318.1,794.3-1321.3,789.9z M-1468.4,847.4
		c-27.6,0-50.1-22.5-50.1-50.1c0-27.6,22.5-50.1,50.1-50.1s50.1,22.5,50.1,50.1C-1418.4,824.9-1440.8,847.4-1468.4,847.4z"/>
	<circle class="st0" cx="-1468.4" cy="797.3" r="21.3"/>
</g>
<g>
	<path class="st0" d="M-512.4,466c-2.7-3.6-66-87.6-147.1-87.6c-81,0-144.4,84-147.1,87.6c-3.3,4.4-3.3,10.5,0,14.9
		c2.7,3.6,66,87.6,147.1,87.6c81,0,144.4-84,147.1-87.6C-509.1,476.5-509.1,470.4-512.4,466z M-659.5,523.5
		c-27.6,0-50.1-22.5-50.1-50.1c0-27.6,22.5-50.1,50.1-50.1c27.6,0,50.1,22.5,50.1,50.1C-609.4,501.1-631.8,523.5-659.5,523.5z"/>
	<circle class="st0" cx="-659.5" cy="473.5" r="21.3"/>
</g>
</svg>
